<svg clip-rule="evenodd" fill-rule="evenodd" stroke-linejoin="round" stroke-miterlimit="2" viewBox="0 0 256 256" xmlns="http://www.w3.org/2000/svg"><path d="m44.242 208.875v-90.535h38.154c9.657 0 18.172 1.896 25.544 5.69s13.106 9.097 17.201 15.909c4.096 6.811 6.144 14.701 6.144 23.668s-2.048 16.857-6.144 23.669c-4.095 6.811-9.829 12.114-17.201 15.908s-15.887 5.691-25.544 5.691zm12.933-11.252h24.445c7.501 0 13.99-1.423 19.465-4.269 5.475-2.845 9.722-6.833 12.74-11.963 3.017-5.131 4.526-11.058 4.526-17.784 0-6.812-1.509-12.761-4.526-17.848-3.018-5.087-7.265-9.054-12.74-11.899-5.475-2.846-11.964-4.268-19.465-4.268h-24.445zm37.03-92.376c24.567 3.161 46.793 21.344 49.927 41.853l12.851-1.964c-3.885-25.422-30.667-48.865-61.12-52.783zm3.231-25.718c36.826 4.738 67.685 32.051 72.384 62.793l12.85-1.964c-5.464-35.753-40.746-68.212-83.575-73.722z" fill="#f3dcff" fill-rule="nonzero"/></svg>